<?xml version="1.0" encoding="utf-8" ?>
<svg baseProfile="tiny" height="576.877" version="1.2" width="567.0" xmlns="http://www.w3.org/2000/svg" xmlns:ev="http://www.w3.org/2001/xml-events" xmlns:xlink="http://www.w3.org/1999/xlink"><defs /><line fill="none" stroke="rgb(255,0,0)" stroke-width="0.1mm" x1="19.4256" x2="144.8988" y1="19.8567" y2="17.5208" /><line fill="none" stroke="rgb(255,0,0)" stroke-width="0.1mm" x1="144.8988" x2="144.6872" y1="17.5208" y2="25.0779" /><line fill="none" stroke="rgb(0,0,0)" stroke-width="0.1mm" x1="144.6872" x2="141.6841" y1="25.0779" y2="132.3236" /><line fill="none" stroke="rgb(0,255,0)" stroke-width="0.1mm" x1="141.6841" x2="141.4725" y1="132.3236" y2="139.8807" /><line fill="none" stroke="rgb(255,0,0)" stroke-width="0.1mm" x1="141.4725" x2="133.9481" y1="139.8807" y2="140.6138" /><line fill="none" stroke="rgb(0,0,0)" stroke-width="0.1mm" x1="133.9481" x2="7.5244" y1="140.6138" y2="152.931" /><line fill="none" stroke="rgb(0,255,0)" stroke-width="0.1mm" x1="7.5244" x2="0.0" y1="152.931" y2="153.664" /><line fill="none" stroke="rgb(255,0,0)" stroke-width="0.1mm" x1="0.0" x2="19.4256" y1="153.664" y2="19.8567" /><line fill="none" stroke="rgb(0,0,255)" stroke-width="0.1mm" x1="76.4492" x2="76.4492" y1="86.1805" y2="60.6512" /><line fill="none" stroke="rgb(0,0,255)" stroke-width="0.1mm" x1="76.4492" x2="81.9691" y1="60.6512" y2="66.171" /><line fill="none" stroke="rgb(0,0,255)" stroke-width="0.1mm" x1="76.4492" x2="70.9294" y1="60.6512" y2="66.171" /><path d="M 88.15860408484752 71.02119111943121 A 16.559554074348476 16.559554074348476 0 1 1 64.73985812605326 71.02119111943121" fill="none" stroke="rgb(0,0,255)" stroke-width="0.1mm" /><line fill="none" stroke="rgb(0,0,255)" stroke-width="0.1mm" x1="88.1586" x2="88.1586" y1="71.0212" y2="78.0468" /><line fill="none" stroke="rgb(0,0,255)" stroke-width="0.1mm" x1="88.1586" x2="95.1842" y1="71.0212" y2="71.0212" /><line fill="none" stroke="rgb(255,0,0)" stroke-width="0.1mm" x1="130.243" x2="130.8128" y1="288.4377" y2="280.8993" /><line fill="none" stroke="rgb(0,0,0)" stroke-width="0.1mm" x1="130.8128" x2="140.9027" y1="280.8993" y2="147.4192" /><line fill="none" stroke="rgb(0,255,0)" stroke-width="0.1mm" x1="140.9027" x2="141.4725" y1="147.4192" y2="139.8807" /><line fill="none" stroke="rgb(255,0,0)" stroke-width="0.1mm" x1="10.7599" x2="18.3199" y1="288.4383" y2="288.4383" /><line fill="none" stroke="rgb(0,0,0)" stroke-width="0.1mm" x1="18.3199" x2="122.683" y1="288.4383" y2="288.4378" /><line fill="none" stroke="rgb(0,255,0)" stroke-width="0.1mm" x1="122.683" x2="130.243" y1="288.4378" y2="288.4377" /><line fill="none" stroke="rgb(255,0,0)" stroke-width="0.1mm" x1="10.7599" x2="0.0" y1="288.4383" y2="153.664" /><line fill="none" stroke="rgb(0,0,255)" stroke-width="0.1mm" x1="70.6188" x2="70.6188" y1="221.0551" y2="195.5258" /><line fill="none" stroke="rgb(0,0,255)" stroke-width="0.1mm" x1="70.6188" x2="76.1387" y1="195.5258" y2="201.0456" /><line fill="none" stroke="rgb(0,0,255)" stroke-width="0.1mm" x1="70.6188" x2="65.099" y1="195.5258" y2="201.0456" /><path d="M 82.32821794562874 205.89582864392912 A 16.559554074348476 16.559554074348476 0 1 1 58.909471986834475 205.89582864392912" fill="none" stroke="rgb(0,0,255)" stroke-width="0.1mm" /><line fill="none" stroke="rgb(0,0,255)" stroke-width="0.1mm" x1="58.9095" x2="51.8838" y1="205.8958" y2="205.8958" /><line fill="none" stroke="rgb(0,0,255)" stroke-width="0.1mm" x1="58.9095" x2="58.9095" y1="205.8958" y2="212.9215" /><line fill="none" stroke="rgb(255,0,0)" stroke-width="0.1mm" x1="130.243" x2="130.8131" y1="288.4377" y2="295.9762" /><line fill="none" stroke="rgb(0,0,0)" stroke-width="0.1mm" x1="130.8131" x2="140.9083" y1="295.9762" y2="429.4557" /><line fill="none" stroke="rgb(0,255,0)" stroke-width="0.1mm" x1="140.9083" x2="141.4784" y1="429.4557" y2="436.9942" /><line fill="none" stroke="rgb(255,0,0)" stroke-width="0.1mm" x1="141.4784" x2="133.954" y1="436.9942" y2="436.2611" /><line fill="none" stroke="rgb(0,0,0)" stroke-width="0.1mm" x1="133.954" x2="7.5359" y1="436.2611" y2="423.9443" /><line fill="none" stroke="rgb(0,255,0)" stroke-width="0.1mm" x1="7.5359" x2="0.0115" y1="423.9443" y2="423.2112" /><line fill="none" stroke="rgb(255,0,0)" stroke-width="0.1mm" x1="0.0115" x2="10.7599" y1="423.2112" y2="288.4383" /><line fill="none" stroke="rgb(0,0,255)" stroke-width="0.1mm" x1="70.6232" x2="70.6232" y1="362.7203" y2="337.191" /><line fill="none" stroke="rgb(0,0,255)" stroke-width="0.1mm" x1="70.6232" x2="76.1431" y1="337.191" y2="342.7108" /><line fill="none" stroke="rgb(0,0,255)" stroke-width="0.1mm" x1="70.6232" x2="65.1034" y1="337.191" y2="342.7108" /><path d="M 82.3325852760701 347.5609973213459 A 16.559554074348476 16.559554074348476 0 1 1 58.913839317275844 347.5609973213459" fill="none" stroke="rgb(0,0,255)" stroke-width="0.1mm" /><line fill="none" stroke="rgb(0,0,255)" stroke-width="0.1mm" x1="82.3326" x2="82.3326" y1="347.561" y2="354.5866" /><line fill="none" stroke="rgb(0,0,255)" stroke-width="0.1mm" x1="82.3326" x2="89.3582" y1="347.561" y2="347.561" /><line fill="none" stroke="rgb(255,0,0)" stroke-width="0.1mm" x1="144.9054" x2="144.6937" y1="559.3544" y2="551.7973" /><line fill="none" stroke="rgb(0,0,0)" stroke-width="0.1mm" x1="144.6937" x2="141.6901" y1="551.7973" y2="444.5512" /><line fill="none" stroke="rgb(0,255,0)" stroke-width="0.1mm" x1="141.6901" x2="141.4784" y1="444.5512" y2="436.9942" /><line fill="none" stroke="rgb(255,0,0)" stroke-width="0.1mm" x1="144.9054" x2="19.4475" y1="559.3544" y2="557.0152" /><line fill="none" stroke="rgb(255,0,0)" stroke-width="0.1mm" x1="19.4475" x2="0.0115" y1="557.0152" y2="423.2112" /><line fill="none" stroke="rgb(0,0,255)" stroke-width="0.1mm" x1="76.4607" x2="76.4607" y1="497.5937" y2="472.0643" /><line fill="none" stroke="rgb(0,0,255)" stroke-width="0.1mm" x1="76.4607" x2="81.9806" y1="472.0643" y2="477.5842" /><line fill="none" stroke="rgb(0,0,255)" stroke-width="0.1mm" x1="76.4607" x2="70.9409" y1="472.0643" y2="477.5842" /><path d="M 88.17007758007483 482.43437646249635 A 16.559554074348476 16.559554074348476 0 1 1 64.75133162128057 482.43437646249635" fill="none" stroke="rgb(0,0,255)" stroke-width="0.1mm" /><line fill="none" stroke="rgb(0,0,255)" stroke-width="0.1mm" x1="64.7513" x2="57.7257" y1="482.4344" y2="482.4344" /><line fill="none" stroke="rgb(0,0,255)" stroke-width="0.1mm" x1="64.7513" x2="64.7513" y1="482.4344" y2="489.46" /><line fill="none" stroke="rgb(255,0,0)" stroke-width="0.1mm" x1="283.5529" x2="422.2" y1="0.0" y2="17.5821" /><line fill="none" stroke="rgb(255,0,0)" stroke-width="0.1mm" x1="422.2" x2="422.4091" y1="17.5821" y2="25.1392" /><line fill="none" stroke="rgb(0,0,0)" stroke-width="0.1mm" x1="422.4091" x2="425.3753" y1="25.1392" y2="132.3672" /><line fill="none" stroke="rgb(0,255,0)" stroke-width="0.1mm" x1="425.3753" x2="425.5844" y1="132.3672" y2="139.9243" /><line fill="none" stroke="rgb(255,0,0)" stroke-width="0.1mm" x1="425.5844" x2="418.0278" y1="139.9243" y2="140.1528" /><line fill="none" stroke="rgb(0,0,0)" stroke-width="0.1mm" x1="418.0278" x2="291.1124" y1="140.1528" y2="143.99" /><line fill="none" stroke="rgb(0,255,0)" stroke-width="0.1mm" x1="291.1124" x2="283.5558" y1="143.99" y2="144.2185" /><line fill="none" stroke="rgb(0,0,255)" stroke-width="0.1mm" x1="353.7233" x2="353.7233" y1="78.8812" y2="53.3518" /><line fill="none" stroke="rgb(0,0,255)" stroke-width="0.1mm" x1="353.7233" x2="359.2431" y1="53.3518" y2="58.8717" /><line fill="none" stroke="rgb(0,0,255)" stroke-width="0.1mm" x1="353.7233" x2="348.2034" y1="53.3518" y2="58.8717" /><path d="M 365.4326414392111 63.72187041144663 A 16.559554074348476 16.559554074348476 0 1 1 342.01389548041686 63.72187041144663" fill="none" stroke="rgb(0,0,255)" stroke-width="0.1mm" /><line fill="none" stroke="rgb(0,0,255)" stroke-width="0.1mm" x1="365.4326" x2="365.4326" y1="63.7219" y2="70.7475" /><line fill="none" stroke="rgb(0,0,255)" stroke-width="0.1mm" x1="365.4326" x2="372.4583" y1="63.7219" y2="63.7219" /><line fill="none" stroke="rgb(255,0,0)" stroke-width="0.1mm" x1="283.5558" x2="283.5557" y1="144.2185" y2="136.6585" /><line fill="none" stroke="rgb(0,0,0)" stroke-width="0.1mm" x1="283.5557" x2="283.553" y1="136.6585" y2="7.56" /><line fill="none" stroke="rgb(0,255,0)" stroke-width="0.1mm" x1="283.553" x2="283.5529" y1="7.56" y2="0.0" /><line fill="none" stroke="rgb(255,0,0)" stroke-width="0.1mm" x1="144.8988" x2="283.5529" y1="17.5208" y2="0.0" /><line fill="none" stroke="rgb(0,0,255)" stroke-width="0.1mm" x1="213.37" x2="213.37" y1="78.8549" y2="53.3256" /><line fill="none" stroke="rgb(0,0,255)" stroke-width="0.1mm" x1="213.37" x2="218.8899" y1="53.3256" y2="58.8455" /><line fill="none" stroke="rgb(0,0,255)" stroke-width="0.1mm" x1="213.37" x2="207.8501" y1="53.3256" y2="58.8455" /><path d="M 225.07937293239868 63.69563681977853 A 16.559554074348476 16.559554074348476 0 1 1 201.66062697360442 63.69563681977853" fill="none" stroke="rgb(0,0,255)" stroke-width="0.1mm" /><line fill="none" stroke="rgb(0,0,255)" stroke-width="0.1mm" x1="201.6606" x2="194.635" y1="63.6956" y2="63.6956" /><line fill="none" stroke="rgb(0,0,255)" stroke-width="0.1mm" x1="201.6606" x2="201.6606" y1="63.6956" y2="70.7213" /><line fill="none" stroke="rgb(255,0,0)" stroke-width="0.1mm" x1="141.4725" x2="149.029" y1="139.8807" y2="140.1114" /><line fill="none" stroke="rgb(0,0,0)" stroke-width="0.1mm" x1="149.029" x2="275.9993" y1="140.1114" y2="143.9878" /><line fill="none" stroke="rgb(0,255,0)" stroke-width="0.1mm" x1="275.9993" x2="283.5558" y1="143.9878" y2="144.2185" /><line fill="none" stroke="rgb(255,0,0)" stroke-width="0.1mm" x1="283.5558" x2="283.5558" y1="144.2185" y2="151.7785" /><line fill="none" stroke="rgb(0,0,0)" stroke-width="0.1mm" x1="283.5558" x2="283.5558" y1="151.7785" y2="280.878" /><line fill="none" stroke="rgb(0,255,0)" stroke-width="0.1mm" x1="283.5558" x2="283.5558" y1="280.878" y2="288.438" /><line fill="none" stroke="rgb(0,0,255)" stroke-width="0.1mm" x1="209.7068" x2="209.7068" y1="218.6937" y2="193.1643" /><line fill="none" stroke="rgb(0,0,255)" stroke-width="0.1mm" x1="209.7068" x2="215.2266" y1="193.1643" y2="198.6842" /><line fill="none" stroke="rgb(0,0,255)" stroke-width="0.1mm" x1="209.7068" x2="204.1869" y1="193.1643" y2="198.6842" /><path d="M 221.41614498524373 203.5343745825586 A 16.559554074348476 16.559554074348476 0 1 1 197.99739902644947 203.5343745825586" fill="none" stroke="rgb(0,0,255)" stroke-width="0.1mm" /><line fill="none" stroke="rgb(0,0,255)" stroke-width="0.1mm" x1="221.4161" x2="221.4161" y1="203.5344" y2="210.56" /><line fill="none" stroke="rgb(0,0,255)" stroke-width="0.1mm" x1="221.4161" x2="228.4418" y1="203.5344" y2="203.5344" /><line fill="none" stroke="rgb(255,0,0)" stroke-width="0.1mm" x1="436.8684" x2="436.2956" y1="288.4377" y2="280.8995" /><line fill="none" stroke="rgb(0,0,0)" stroke-width="0.1mm" x1="436.2956" x2="426.1571" y1="280.8995" y2="147.4626" /><line fill="none" stroke="rgb(0,255,0)" stroke-width="0.1mm" x1="426.1571" x2="425.5844" y1="147.4626" y2="139.9243" /><line fill="none" stroke="rgb(0,0,255)" stroke-width="0.1mm" x1="357.3911" x2="357.3911" y1="218.7046" y2="193.1753" /><line fill="none" stroke="rgb(0,0,255)" stroke-width="0.1mm" x1="357.3911" x2="362.9109" y1="193.1753" y2="198.6951" /><line fill="none" stroke="rgb(0,0,255)" stroke-width="0.1mm" x1="357.3911" x2="351.8712" y1="193.1753" y2="198.6951" /><path d="M 369.1004587844569 203.545285506407 A 16.559554074348476 16.559554074348476 0 1 1 345.68171282566266 203.545285506407" fill="none" stroke="rgb(0,0,255)" stroke-width="0.1mm" /><line fill="none" stroke="rgb(0,0,255)" stroke-width="0.1mm" x1="345.6817" x2="338.6561" y1="203.5453" y2="203.5453" /><line fill="none" stroke="rgb(0,0,255)" stroke-width="0.1mm" x1="345.6817" x2="345.6817" y1="203.5453" y2="210.5709" /><line fill="none" stroke="rgb(255,0,0)" stroke-width="0.1mm" x1="283.5558" x2="291.1158" y1="288.438" y2="288.438" /><line fill="none" stroke="rgb(0,0,0)" stroke-width="0.1mm" x1="291.1158" x2="429.3084" y1="288.438" y2="288.4378" /><line fill="none" stroke="rgb(0,255,0)" stroke-width="0.1mm" x1="429.3084" x2="436.8684" y1="288.4378" y2="288.4377" /><line fill="none" stroke="rgb(255,0,0)" stroke-width="0.1mm" x1="436.8684" x2="436.2953" y1="288.4377" y2="295.976" /><line fill="none" stroke="rgb(0,0,0)" stroke-width="0.1mm" x1="436.2953" x2="426.1515" y1="295.976" y2="429.4124" /><line fill="none" stroke="rgb(0,255,0)" stroke-width="0.1mm" x1="426.1515" x2="425.5784" y1="429.4124" y2="436.9507" /><line fill="none" stroke="rgb(255,0,0)" stroke-width="0.1mm" x1="425.5784" x2="418.0219" y1="436.9507" y2="436.7223" /><line fill="none" stroke="rgb(0,0,0)" stroke-width="0.1mm" x1="418.0219" x2="291.1124" y1="436.7223" y2="432.8861" /><line fill="none" stroke="rgb(0,255,0)" stroke-width="0.1mm" x1="291.1124" x2="283.5558" y1="432.8861" y2="432.6577" /><line fill="none" stroke="rgb(0,0,255)" stroke-width="0.1mm" x1="357.3896" x2="357.3896" y1="365.0709" y2="339.5416" /><line fill="none" stroke="rgb(0,0,255)" stroke-width="0.1mm" x1="357.3896" x2="362.9095" y1="339.5416" y2="345.0615" /><line fill="none" stroke="rgb(0,0,255)" stroke-width="0.1mm" x1="357.3896" x2="351.8698" y1="339.5416" y2="345.0615" /><path d="M 369.09897833345985 349.91165741449686 A 16.559554074348476 16.559554074348476 0 1 1 345.6802323746656 349.91165741449686" fill="none" stroke="rgb(0,0,255)" stroke-width="0.1mm" /><line fill="none" stroke="rgb(0,0,255)" stroke-width="0.1mm" x1="369.099" x2="369.099" y1="349.9117" y2="356.9373" /><line fill="none" stroke="rgb(0,0,255)" stroke-width="0.1mm" x1="369.099" x2="376.1246" y1="349.9117" y2="349.9117" /><line fill="none" stroke="rgb(255,0,0)" stroke-width="0.1mm" x1="283.5558" x2="283.5558" y1="432.6577" y2="425.0977" /><line fill="none" stroke="rgb(0,0,0)" stroke-width="0.1mm" x1="283.5558" x2="283.5558" y1="425.0977" y2="295.998" /><line fill="none" stroke="rgb(0,255,0)" stroke-width="0.1mm" x1="283.5558" x2="283.5558" y1="295.998" y2="288.438" /><line fill="none" stroke="rgb(255,0,0)" stroke-width="0.1mm" x1="283.5558" x2="275.9958" y1="288.438" y2="288.438" /><line fill="none" stroke="rgb(0,0,0)" stroke-width="0.1mm" x1="275.9958" x2="137.803" y1="288.438" y2="288.4378" /><line fill="none" stroke="rgb(0,255,0)" stroke-width="0.1mm" x1="137.803" x2="130.243" y1="288.4378" y2="288.4377" /><line fill="none" stroke="rgb(0,0,255)" stroke-width="0.1mm" x1="209.7083" x2="209.7083" y1="365.0818" y2="339.5525" /><line fill="none" stroke="rgb(0,0,255)" stroke-width="0.1mm" x1="209.7083" x2="215.2281" y1="339.5525" y2="345.0724" /><line fill="none" stroke="rgb(0,0,255)" stroke-width="0.1mm" x1="209.7083" x2="204.1884" y1="339.5525" y2="345.0724" /><path d="M 221.41762543624083 349.92253872932525 A 16.559554074348476 16.559554074348476 0 1 1 197.99887947744656 349.92253872932525" fill="none" stroke="rgb(0,0,255)" stroke-width="0.1mm" /><line fill="none" stroke="rgb(0,0,255)" stroke-width="0.1mm" x1="197.9989" x2="190.9733" y1="349.9225" y2="349.9225" /><line fill="none" stroke="rgb(0,0,255)" stroke-width="0.1mm" x1="197.9989" x2="197.9989" y1="349.9225" y2="356.9482" /><line fill="none" stroke="rgb(255,0,0)" stroke-width="0.1mm" x1="141.4784" x2="149.0349" y1="436.9942" y2="436.7636" /><line fill="none" stroke="rgb(0,0,0)" stroke-width="0.1mm" x1="149.0349" x2="275.9993" y1="436.7636" y2="432.8883" /><line fill="none" stroke="rgb(0,255,0)" stroke-width="0.1mm" x1="275.9993" x2="283.5558" y1="432.8883" y2="432.6577" /><line fill="none" stroke="rgb(255,0,0)" stroke-width="0.1mm" x1="283.5558" x2="283.5557" y1="432.6577" y2="440.2177" /><line fill="none" stroke="rgb(0,0,0)" stroke-width="0.1mm" x1="283.5557" x2="283.553" y1="440.2177" y2="569.317" /><line fill="none" stroke="rgb(0,255,0)" stroke-width="0.1mm" x1="283.553" x2="283.5529" y1="569.317" y2="576.877" /><line fill="none" stroke="rgb(255,0,0)" stroke-width="0.1mm" x1="283.5529" x2="144.9054" y1="576.877" y2="559.3544" /><line fill="none" stroke="rgb(0,0,255)" stroke-width="0.1mm" x1="213.3731" x2="213.3731" y1="504.9207" y2="479.3914" /><line fill="none" stroke="rgb(0,0,255)" stroke-width="0.1mm" x1="213.3731" x2="218.893" y1="479.3914" y2="484.9112" /><line fill="none" stroke="rgb(0,0,255)" stroke-width="0.1mm" x1="213.3731" x2="207.8533" y1="479.3914" y2="484.9112" /><path d="M 225.08248187949252 489.7614245372051 A 16.559554074348476 16.559554074348476 0 1 1 201.66373592069826 489.7614245372051" fill="none" stroke="rgb(0,0,255)" stroke-width="0.1mm" /><line fill="none" stroke="rgb(0,0,255)" stroke-width="0.1mm" x1="225.0825" x2="225.0825" y1="489.7614" y2="496.787" /><line fill="none" stroke="rgb(0,0,255)" stroke-width="0.1mm" x1="225.0825" x2="232.1081" y1="489.7614" y2="489.7614" /><line fill="none" stroke="rgb(255,0,0)" stroke-width="0.1mm" x1="422.1941" x2="422.4032" y1="559.2951" y2="551.738" /><line fill="none" stroke="rgb(0,0,0)" stroke-width="0.1mm" x1="422.4032" x2="425.3694" y1="551.738" y2="444.5078" /><line fill="none" stroke="rgb(0,255,0)" stroke-width="0.1mm" x1="425.3694" x2="425.5784" y1="444.5078" y2="436.9507" /><line fill="none" stroke="rgb(255,0,0)" stroke-width="0.1mm" x1="422.1941" x2="283.5529" y1="559.2951" y2="576.877" /><line fill="none" stroke="rgb(0,0,255)" stroke-width="0.1mm" x1="353.7203" x2="353.7203" y1="504.895" y2="479.3657" /><line fill="none" stroke="rgb(0,0,255)" stroke-width="0.1mm" x1="353.7203" x2="359.2402" y1="479.3657" y2="484.8856" /><line fill="none" stroke="rgb(0,0,255)" stroke-width="0.1mm" x1="353.7203" x2="348.2005" y1="479.3657" y2="484.8856" /><path d="M 365.4296805372169 489.7357387124058 A 16.559554074348476 16.559554074348476 0 1 1 342.0109345784226 489.7357387124058" fill="none" stroke="rgb(0,0,255)" stroke-width="0.1mm" /><line fill="none" stroke="rgb(0,0,255)" stroke-width="0.1mm" x1="342.0109" x2="334.9853" y1="489.7357" y2="489.7357" /><line fill="none" stroke="rgb(0,0,255)" stroke-width="0.1mm" x1="342.0109" x2="342.0109" y1="489.7357" y2="496.7614" /><line fill="none" stroke="rgb(255,0,0)" stroke-width="0.1mm" x1="547.5794" x2="567.0" y1="19.9405" y2="153.7045" /><line fill="none" stroke="rgb(255,0,0)" stroke-width="0.1mm" x1="422.2" x2="547.5794" y1="17.5821" y2="19.9405" /><line fill="none" stroke="rgb(0,0,255)" stroke-width="0.1mm" x1="490.591" x2="490.591" y1="86.2378" y2="60.7085" /><line fill="none" stroke="rgb(0,0,255)" stroke-width="0.1mm" x1="490.591" x2="496.1108" y1="60.7085" y2="66.2283" /><line fill="none" stroke="rgb(0,0,255)" stroke-width="0.1mm" x1="490.591" x2="485.0711" y1="60.7085" y2="66.2283" /><path d="M 502.3003361185172 71.07849123504737 A 16.559554074348476 16.559554074348476 0 1 1 478.8815901597229 71.07849123504737" fill="none" stroke="rgb(0,0,255)" stroke-width="0.1mm" /><line fill="none" stroke="rgb(0,0,255)" stroke-width="0.1mm" x1="478.8816" x2="471.856" y1="71.0785" y2="71.0785" /><line fill="none" stroke="rgb(0,0,255)" stroke-width="0.1mm" x1="478.8816" x2="478.8816" y1="71.0785" y2="78.1041" /><line fill="none" stroke="rgb(255,0,0)" stroke-width="0.1mm" x1="425.5844" x2="433.1087" y1="139.9243" y2="140.6575" /><line fill="none" stroke="rgb(0,0,0)" stroke-width="0.1mm" x1="433.1087" x2="559.4756" y1="140.6575" y2="152.9713" /><line fill="none" stroke="rgb(0,255,0)" stroke-width="0.1mm" x1="559.4756" x2="567.0" y1="152.9713" y2="153.7045" /><line fill="none" stroke="rgb(255,0,0)" stroke-width="0.1mm" x1="567.0" x2="556.2815" y1="153.7045" y2="288.4383" /><line fill="none" stroke="rgb(0,0,255)" stroke-width="0.1mm" x1="496.4336" x2="496.4336" y1="221.0761" y2="195.5468" /><line fill="none" stroke="rgb(0,0,255)" stroke-width="0.1mm" x1="496.4336" x2="501.9534" y1="195.5468" y2="201.0667" /><line fill="none" stroke="rgb(0,0,255)" stroke-width="0.1mm" x1="496.4336" x2="490.9137" y1="195.5468" y2="201.0667" /><path d="M 508.1429359784618 205.91685771011703 A 16.559554074348476 16.559554074348476 0 1 1 484.72419001966756 205.91685771011703" fill="none" stroke="rgb(0,0,255)" stroke-width="0.1mm" /><line fill="none" stroke="rgb(0,0,255)" stroke-width="0.1mm" x1="508.1429" x2="508.1429" y1="205.9169" y2="212.9425" /><line fill="none" stroke="rgb(0,0,255)" stroke-width="0.1mm" x1="508.1429" x2="515.1686" y1="205.9169" y2="205.9169" /><line fill="none" stroke="rgb(255,0,0)" stroke-width="0.1mm" x1="556.2815" x2="566.9882" y1="288.4383" y2="423.1712" /><line fill="none" stroke="rgb(255,0,0)" stroke-width="0.1mm" x1="556.2815" x2="548.7215" y1="288.4383" y2="288.4383" /><line fill="none" stroke="rgb(0,0,0)" stroke-width="0.1mm" x1="548.7215" x2="444.4284" y1="288.4383" y2="288.4378" /><line fill="none" stroke="rgb(0,255,0)" stroke-width="0.1mm" x1="444.4284" x2="436.8684" y1="288.4378" y2="288.4377" /><line fill="none" stroke="rgb(0,0,255)" stroke-width="0.1mm" x1="496.4291" x2="496.4291" y1="362.6994" y2="337.1701" /><line fill="none" stroke="rgb(0,0,255)" stroke-width="0.1mm" x1="496.4291" x2="501.949" y1="337.1701" y2="342.6899" /><line fill="none" stroke="rgb(0,0,255)" stroke-width="0.1mm" x1="496.4291" x2="490.9093" y1="337.1701" y2="342.6899" /><path d="M 508.1384946254706 347.54012296228717 A 16.559554074348476 16.559554074348476 0 1 1 484.71974866667637 347.54012296228717" fill="none" stroke="rgb(0,0,255)" stroke-width="0.1mm" /><line fill="none" stroke="rgb(0,0,255)" stroke-width="0.1mm" x1="484.7197" x2="477.6941" y1="347.5401" y2="347.5401" /><line fill="none" stroke="rgb(0,0,255)" stroke-width="0.1mm" x1="484.7197" x2="484.7197" y1="347.5401" y2="354.5657" /><line fill="none" stroke="rgb(255,0,0)" stroke-width="0.1mm" x1="425.5784" x2="433.1028" y1="436.9507" y2="436.2175" /><line fill="none" stroke="rgb(0,0,0)" stroke-width="0.1mm" x1="433.1028" x2="559.4638" y1="436.2175" y2="423.9044" /><line fill="none" stroke="rgb(0,255,0)" stroke-width="0.1mm" x1="559.4638" x2="566.9882" y1="423.9044" y2="423.1712" /><line fill="none" stroke="rgb(255,0,0)" stroke-width="0.1mm" x1="566.9882" x2="547.5558" y1="423.1712" y2="556.9323" /><line fill="none" stroke="rgb(255,0,0)" stroke-width="0.1mm" x1="547.5558" x2="422.1941" y1="556.9323" y2="559.2951" /><line fill="none" stroke="rgb(0,0,255)" stroke-width="0.1mm" x1="490.5791" x2="490.5791" y1="497.5373" y2="472.0079" /><line fill="none" stroke="rgb(0,0,255)" stroke-width="0.1mm" x1="490.5791" x2="496.099" y1="472.0079" y2="477.5278" /><line fill="none" stroke="rgb(0,0,255)" stroke-width="0.1mm" x1="490.5791" x2="485.0593" y1="472.0079" y2="477.5278" /><path d="M 502.28849251054055 482.37797127950785 A 16.559554074348476 16.559554074348476 0 1 1 478.8697465517463 482.37797127950785" fill="none" stroke="rgb(0,0,255)" stroke-width="0.1mm" /><line fill="none" stroke="rgb(0,0,255)" stroke-width="0.1mm" x1="502.2885" x2="502.2885" y1="482.378" y2="489.4036" /><line fill="none" stroke="rgb(0,0,255)" stroke-width="0.1mm" x1="502.2885" x2="509.3141" y1="482.378" y2="482.378" /></svg>